<?xml version="1.0" encoding="UTF-8" standalone="no"?>
<!DOCTYPE svg PUBLIC "-//W3C//DTD SVG 1.1//EN" "http://www.w3.org/Graphics/SVG/1.1/DTD/svg11.dtd">
<svg xmlns="http://www.w3.org/2000/svg" version="1.1" viewBox="0.00 0.00 25.00 24.00">
<g stroke-width="2.00" fill="none" stroke-linecap="butt">
<path stroke="#86898d" vector-effect="non-scaling-stroke" d="
  M 15.02 8.79
  Q 16.99 8.74 18.32 10.24
  A 0.50 0.50 0.0 0 0 19.06 10.26
  L 19.33 10.00
  A 0.56 0.56 0.0 0 0 19.36 9.25
  Q 16.99 6.40 13.52 7.61
  Q 13.01 7.78 12.50 7.61
  Q 8.83 6.40 6.63 9.32
  A 0.70 0.70 0.0 0 0 7.70 10.21
  Q 9.02 8.77 10.94 8.76
  A 0.47 0.47 0.0 0 1 11.33 9.49
  Q 9.55 12.19 11.40 14.80
  A 0.44 0.44 0.0 0 1 11.03 15.50
  Q 9.12 15.46 7.78 14.05
  A 0.56 0.55 41.3 0 0 6.93 14.10
  L 6.72 14.38
  Q 6.42 14.78 6.76 15.16
  Q 9.19 17.83 12.47 16.58
  Q 12.96 16.39 13.45 16.58
  Q 16.82 17.84 19.24 15.19
  A 0.71 0.70 -56.6 0 0 19.01 14.07
  C 18.26 13.73 16.55 15.60 14.98 15.44
  Q 14.21 15.37 14.64 14.73
  Q 16.41 12.10 14.67 9.47
  Q 14.24 8.81 15.02 8.79"
/>
<path stroke="#86898d" vector-effect="non-scaling-stroke" d="
  M 12.9690 14.1499
  A 2.01 0.97 90.6 0 0 13.9599 12.1502
  A 2.01 0.97 90.6 0 0 13.0110 10.1301
  A 2.01 0.97 90.6 0 0 12.0201 12.1298
  A 2.01 0.97 90.6 0 0 12.9690 14.1499"
/>
</g>
<path fill="#0e121b" d="
  M 0.00 0.00
  L 25.00 0.00
  L 25.00 24.00
  L 0.00 24.00
  L 0.00 0.00
  Z
  M 15.02 8.79
  Q 16.99 8.74 18.32 10.24
  A 0.50 0.50 0.0 0 0 19.06 10.26
  L 19.33 10.00
  A 0.56 0.56 0.0 0 0 19.36 9.25
  Q 16.99 6.40 13.52 7.61
  Q 13.01 7.78 12.50 7.61
  Q 8.83 6.40 6.63 9.32
  A 0.70 0.70 0.0 0 0 7.70 10.21
  Q 9.02 8.77 10.94 8.76
  A 0.47 0.47 0.0 0 1 11.33 9.49
  Q 9.55 12.19 11.40 14.80
  A 0.44 0.44 0.0 0 1 11.03 15.50
  Q 9.12 15.46 7.78 14.05
  A 0.56 0.55 41.3 0 0 6.93 14.10
  L 6.72 14.38
  Q 6.42 14.78 6.76 15.16
  Q 9.19 17.83 12.47 16.58
  Q 12.96 16.39 13.45 16.58
  Q 16.82 17.84 19.24 15.19
  A 0.71 0.70 -56.6 0 0 19.01 14.07
  C 18.26 13.73 16.55 15.60 14.98 15.44
  Q 14.21 15.37 14.64 14.73
  Q 16.41 12.10 14.67 9.47
  Q 14.24 8.81 15.02 8.79
  Z"
/>
<path fill="#feffff" d="
  M 14.67 9.47
  Q 16.41 12.10 14.64 14.73
  Q 14.21 15.37 14.98 15.44
  C 16.55 15.60 18.26 13.73 19.01 14.07
  A 0.71 0.70 -56.6 0 1 19.24 15.19
  Q 16.82 17.84 13.45 16.58
  Q 12.96 16.39 12.47 16.58
  Q 9.19 17.83 6.76 15.16
  Q 6.42 14.78 6.72 14.38
  L 6.93 14.10
  A 0.56 0.55 41.3 0 1 7.78 14.05
  Q 9.12 15.46 11.03 15.50
  A 0.44 0.44 0.0 0 0 11.40 14.80
  Q 9.55 12.19 11.33 9.49
  A 0.47 0.47 0.0 0 0 10.94 8.76
  Q 9.02 8.77 7.70 10.21
  A 0.70 0.70 0.0 0 1 6.63 9.32
  Q 8.83 6.40 12.50 7.61
  Q 13.01 7.78 13.52 7.61
  Q 16.99 6.40 19.36 9.25
  A 0.56 0.56 0.0 0 1 19.33 10.00
  L 19.06 10.26
  A 0.50 0.50 0.0 0 1 18.32 10.24
  Q 16.99 8.74 15.02 8.79
  Q 14.24 8.81 14.67 9.47
  Z
  M 12.9690 14.1499
  A 2.01 0.97 90.6 0 0 13.9599 12.1502
  A 2.01 0.97 90.6 0 0 13.0110 10.1301
  A 2.01 0.97 90.6 0 0 12.0201 12.1298
  A 2.01 0.97 90.6 0 0 12.9690 14.1499
  Z"
/>
<ellipse fill="#0e121b" cx="0.00" cy="0.00" transform="translate(12.99,12.14) rotate(90.6)" rx="2.01" ry="0.97"/>
</svg>
